<?xml version="1.0" standalone="no"?>
<!DOCTYPE svg PUBLIC "-//W3C//DTD SVG 20010904//EN"
 "http://www.w3.org/TR/2001/REC-SVG-20010904/DTD/svg10.dtd">
<svg version="1.0" xmlns="http://www.w3.org/2000/svg"
 width="100.000000pt" height="100.000000pt" viewBox="0 0 100.000000 100.000000"
 preserveAspectRatio="xMidYMid meet">
<metadata>
Created by potrace 1.11, written by Peter Selinger 2001-2013
</metadata>
<g transform="translate(0.000000,100.000000) scale(0.100000,-0.100000)"
fill="#000000" stroke="none">
<path d="M334 958 c-4 -13 -8 -26 -9 -30 0 -3 -3 -10 -7 -13 -11 -11 37 -45
63 -45 21 0 22 1 4 20 -10 11 -24 20 -32 20 -8 0 -11 5 -8 10 4 6 13 7 23 1
12 -6 26 -5 42 5 16 8 20 14 10 15 -20 2 -22 2 -43 -6 -14 -6 -17 -3 -15 15 4
31 -18 37 -28 8z"/>
<path d="M636 971 c-4 -5 -3 -16 0 -25 5 -12 -1 -14 -30 -9 -40 6 -48 -3 -13
-16 12 -5 29 -5 39 0 10 6 19 5 23 -1 3 -5 0 -10 -8 -10 -8 0 -22 -9 -32 -20
-18 -20 -17 -20 8 -20 36 0 55 23 51 60 -6 46 -23 65 -38 41z"/>
<path d="M708 926 c-2 -21 0 -36 7 -37 5 0 -5 -7 -23 -15 -33 -15 -35 -34 -3
-34 47 0 73 72 39 107 -14 13 -16 11 -20 -21z"/>
<path d="M265 939 c-4 -6 -8 -26 -9 -45 -1 -28 3 -35 26 -45 32 -13 68 -5 51
12 -6 6 -22 12 -36 12 -17 1 -22 6 -16 12 12 12 12 65 0 65 -6 0 -13 -5 -16
-11z"/>
<path d="M195 890 c-3 -11 -3 -29 0 -40 4 -12 2 -26 -3 -33 -8 -9 1 -12 36
-12 27 0 47 5 49 13 4 11 -15 17 -46 12 -13 -2 -13 0 0 16 12 15 12 16 0 9
-11 -6 -13 -4 -8 8 7 19 -1 47 -13 47 -5 0 -12 -9 -15 -20z"/>
<path d="M776 894 c-3 -8 -3 -26 0 -39 4 -16 1 -23 -8 -22 -34 1 -49 -4 -45
-15 2 -8 22 -13 49 -13 35 0 44 3 36 12 -5 7 -7 21 -3 33 12 39 -15 81 -29 44z"/>
<path d="M138 849 c-3 -8 -3 -25 -1 -39 2 -14 4 -32 5 -40 3 -21 71 -25 88 -5
10 12 9 15 -6 17 -11 0 -27 1 -36 0 -10 -1 -17 2 -17 6 3 19 -2 40 -14 56 -11
15 -15 16 -19 5z"/>
<path d="M836 830 c-11 -27 -12 -38 -3 -49 10 -12 9 -12 -10 -3 -13 8 -30 9
-44 3 l-23 -8 21 -11 c21 -12 84 -12 77 -1 -2 4 1 20 7 37 7 21 7 37 0 49 -9
16 -11 14 -25 -17z"/>
<path d="M459 780 c-19 -9 -57 -31 -86 -48 -29 -17 -71 -36 -93 -42 l-41 -11
6 -62 c12 -152 61 -265 152 -354 83 -83 99 -86 167 -35 109 83 178 231 191
412 2 31 -12 50 -36 50 -18 0 -74 29 -149 75 -51 31 -73 34 -111 15z"/>
<path d="M86 774 c-4 -9 0 -27 9 -40 8 -13 14 -34 12 -46 -2 -13 -2 -17 0 -10
3 6 17 12 33 12 25 0 60 21 60 37 0 3 -13 3 -30 1 -16 -3 -30 -1 -30 4 0 5 -4
6 -10 3 -5 -3 -10 3 -10 13 0 28 -26 48 -34 26z"/>
<path d="M890 775 c-6 -8 -13 -22 -14 -32 -2 -14 -11 -17 -39 -15 -21 2 -37 1
-37 -2 0 -13 34 -36 55 -36 13 0 29 -8 35 -17 8 -15 9 -13 4 10 -4 16 -1 33 7
43 16 20 22 51 10 58 -5 3 -14 -1 -21 -9z"/>
<path d="M49 709 c-3 -27 3 -44 21 -64 11 -12 15 -27 11 -38 -6 -16 -8 -16
-24 3 -9 11 -21 20 -27 20 -19 0 -10 -31 15 -54 14 -13 25 -31 25 -40 0 -15
-2 -15 -25 0 -14 9 -28 14 -31 11 -12 -11 7 -44 31 -55 14 -6 25 -18 25 -26 0
-9 12 -3 35 17 19 17 35 37 35 44 0 21 -27 15 -44 -9 l-16 -22 0 26 c0 19 6
27 25 32 24 6 52 42 41 53 -3 3 -17 -2 -31 -11 -24 -16 -25 -15 -25 3 0 13 9
20 29 24 34 7 64 47 36 47 -9 0 -25 -5 -36 -10 -16 -9 -21 -7 -28 13 -12 31
-41 55 -42 36z"/>
<path d="M928 703 c-8 -10 -18 -26 -21 -36 -5 -14 -10 -15 -25 -6 -11 7 -27 9
-37 5 -16 -6 -17 -9 -4 -21 15 -15 90 -34 77 -20 -5 5 1 14 11 21 21 15 32 46
22 63 -5 8 -12 6 -23 -6z"/>
<path d="M940 610 c-11 -11 -20 -25 -20 -32 0 -6 -6 -4 -12 5 -14 19 -58 31
-58 16 0 -14 38 -49 55 -49 10 0 15 -10 15 -27 l0 -27 -16 22 c-8 12 -22 22
-30 22 -24 0 -15 -27 17 -53 18 -14 29 -29 25 -35 -4 -8 -14 -4 -26 8 -11 11
-24 20 -30 20 -18 0 -10 -31 15 -56 27 -27 32 -49 13 -60 -6 -4 -8 -3 -5 3 7
11 -19 53 -34 53 -15 0 -10 -37 9 -73 15 -28 20 -31 30 -20 7 7 23 13 36 13
13 0 31 8 40 19 16 17 16 19 -2 23 -11 3 -27 1 -36 -4 -17 -9 -21 0 -8 17 4 6
20 17 37 25 38 20 49 55 13 45 -12 -4 -29 -14 -35 -23 -15 -19 -16 -12 -4 21
6 14 18 28 29 31 10 4 24 18 31 32 10 24 10 25 -11 18 -13 -3 -29 -11 -35 -16
-25 -20 -14 24 12 48 25 23 34 54 15 54 -5 0 -19 -9 -30 -20z"/>
<path d="M103 461 c-12 -10 -19 -22 -15 -27 4 -5 -2 -1 -13 8 -20 16 -37 21
-64 19 -21 -2 7 -31 47 -48 38 -16 47 -48 9 -34 -13 5 -29 6 -36 2 -16 -10 16
-38 49 -43 24 -3 40 -15 40 -31 0 -5 -5 -5 -11 -2 -5 4 -22 4 -37 0 l-27 -7
25 -18 c13 -10 36 -17 50 -15 14 1 30 -1 36 -6 13 -11 40 62 31 85 -9 24 -26
19 -33 -9 -6 -26 -18 -32 -29 -16 -3 5 -1 12 5 16 20 13 39 61 29 76 -8 11
-14 8 -34 -16 -20 -24 -25 -26 -25 -12 0 11 9 26 19 35 25 22 37 62 19 62 -7
-1 -23 -9 -35 -19z"/>
<path d="M814 346 c-4 -17 -2 -36 5 -47 13 -22 15 -49 2 -49 -5 0 -11 14 -15
31 -3 18 -11 29 -18 27 -17 -6 -22 -52 -9 -77 8 -15 7 -20 -5 -25 -11 -4 -15
-2 -11 6 2 7 0 24 -5 37 l-9 25 -15 -23 c-10 -14 -14 -33 -11 -51 4 -18 1 -32
-8 -40 -12 -10 -13 -6 -8 23 3 19 1 37 -5 41 -15 9 -42 -33 -42 -65 0 -15 -7
-29 -15 -33 -13 -4 -13 -2 -5 14 12 23 13 60 2 60 -15 0 -41 -35 -45 -61 -3
-19 -14 -27 -52 -40 -44 -14 -53 -14 -91 0 -31 11 -45 22 -49 41 -7 27 -33 60
-47 60 -11 0 -10 -37 2 -60 7 -13 7 -21 -2 -26 -7 -4 -8 -3 -4 4 4 7 2 12 -3
12 -6 0 -11 12 -11 28 0 33 -27 75 -42 66 -6 -4 -8 -22 -5 -41 5 -27 3 -32 -7
-24 -7 6 -11 23 -8 40 2 17 -2 39 -11 51 -14 20 -16 21 -25 4 -6 -11 -7 -27
-1 -41 8 -21 7 -22 -11 -11 -14 9 -16 16 -9 30 13 24 8 70 -7 75 -11 4 -37
-51 -29 -59 3 -2 -12 -5 -33 -6 -72 -5 -64 -44 8 -41 19 1 41 1 48 0 20 -2 4
-21 -17 -21 -10 0 -24 -7 -31 -15 -10 -12 -7 -15 14 -21 15 -3 40 -1 57 6 23
10 33 10 42 1 8 -8 7 -11 -4 -11 -19 0 -52 -34 -42 -43 10 -11 33 -8 69 9 40
19 58 11 26 -12 -12 -8 -22 -22 -22 -30 0 -22 36 -16 69 12 28 23 33 24 69 13
l40 -11 -32 -29 c-24 -22 -27 -28 -13 -29 9 0 17 4 17 8 0 5 11 14 24 22 21
11 29 10 61 -10 43 -26 57 -21 21 8 -15 11 -26 22 -26 25 0 4 16 11 37 16 32
9 39 7 65 -14 32 -27 68 -33 68 -11 0 8 -12 24 -27 35 -34 25 -11 29 33 6 51
-26 87 -16 57 17 -9 10 -23 18 -32 18 -11 0 -12 3 -4 11 9 9 19 9 42 -1 17 -7
42 -9 57 -6 24 6 26 9 12 23 -9 8 -28 16 -42 16 -23 2 -24 3 -9 14 9 8 31 11
52 7 39 -5 68 7 57 25 -4 6 -19 11 -32 11 -42 0 -22 25 21 27 21 1 45 9 53 17
13 13 12 16 -11 21 -14 4 -30 4 -36 1 -13 -9 -41 4 -41 18 0 7 -6 21 -14 32
-14 18 -15 18 -22 -10z"/>
</g>
</svg>
