<?xml version="1.0" standalone="no"?>
<!DOCTYPE svg PUBLIC "-//W3C//DTD SVG 20010904//EN"
 "http://www.w3.org/TR/2001/REC-SVG-20010904/DTD/svg10.dtd">
<svg version="1.0" xmlns="http://www.w3.org/2000/svg"
 width="52.000000pt" height="52.000000pt" viewBox="0 0 52.000000 52.000000"
 preserveAspectRatio="xMidYMid meet">

<g transform="translate(0.000000,52.000000) scale(0.100000,-0.100000)"
fill="#000000" stroke="none">
<path d="M192 513 c-13 -3 -38 -20 -57 -39 -28 -28 -35 -42 -35 -74 0 -22 -5
-48 -11 -58 -14 -23 5 -72 31 -79 11 -3 22 -13 25 -22 11 -35 64 -75 100 -75
40 0 66 21 100 81 21 39 23 52 18 109 -7 78 -28 109 -84 124 -47 13 -90 2
-126 -32 -17 -16 -23 -33 -23 -67 0 -33 -3 -42 -10 -31 -25 38 2 110 50 135
16 8 52 15 79 15 42 0 56 -5 86 -31 30 -27 35 -37 35 -74 0 -24 5 -47 10 -50
16 -10 12 73 -6 106 -26 51 -103 77 -182 62z m44 -128 c26 -14 60 -25 75 -25
22 0 29 -5 29 -19 0 -11 6 -21 13 -24 14 -4 -21 -75 -56 -114 -27 -30 -79 -31
-108 -2 -26 26 -20 33 16 19 31 -12 55 -7 55 10 0 7 -13 10 -29 8 -39 -4 -78
19 -90 53 -6 18 -6 29 0 29 5 0 9 15 9 33 0 31 14 57 31 57 5 0 29 -11 55 -25z"/>
<path d="M92 141 c-69 -24 -83 -39 -89 -95 l-6 -46 247 0 c228 0 246 1 246 18
0 38 -22 92 -41 103 -16 8 -106 38 -116 39 -2 0 -3 -8 -3 -18 0 -24 -56 -111
-75 -119 -9 -3 -25 3 -36 13 -24 22 -59 86 -59 109 0 19 -3 19 -68 -4z"/>
<path d="M224 135 c-4 -9 -4 -18 -1 -21 3 -4 2 -16 -3 -29 -10 -27 10 -51 34
-42 22 9 16 101 -7 105 -10 2 -20 -4 -23 -13z"/>
</g>
</svg>
